# xmcd
#
# Track frame offsets: 
#        150
#        17630
#        31908
#        71394
#        93312
#        109908
#        136561
#        158572
#        175063
#        195071
#        212542
#        232333
#
# Disc length: 3324 seconds
#
# Revision: 6
# Processed by: cddbd v1.5.2PL0 Copyright (c) Steve Scherf et al.
# Submitted via: ExactAudioCopy v1.1
#
DISCID=8b0cfa0c
DTITLE=Cuby and Blizzards - Hotel Grolloo
DYEAR=2000
DGENRE=Blues
TTITLE0=Another Day, Another Road
TTITLE1=Appleknockers Flophouse
TTITLE2=Last Minute Flight
TTITLE3=Nobody In Town
TTITLE4=Just For Fun
TTITLE5=Somebody Will Know Someday
TTITLE6=Wondering Where The Indians Have Gone
TTITLE7=Window Of My Eyes
TTITLE8=Liquor Blues
TTITLE9=Going Home
TTITLE10=So Many Roads
TTITLE11=Once In A Lifetime
EXTD=
EXTT0=
EXTT1=
EXTT2=
EXTT3=
EXTT4=
EXTT5=
EXTT6=
EXTT7=
EXTT8=
EXTT9=
EXTT10=
EXTT11=
PLAYORDER=
